<svg width="13" height="13" viewBox="0 0 13 13" fill="none" xmlns="http://www.w3.org/2000/svg">
<path d="M3.61111 4.33333C3.21224 4.33333 2.88889 4.65668 2.88889 5.05556C2.88889 5.45443 3.21224 5.77778 3.61111 5.77778H9.38889C9.78776 5.77778 10.1111 5.45443 10.1111 5.05556C10.1111 4.65668 9.78776 4.33333 9.38889 4.33333H3.61111Z" fill="white"/>
<path fill-rule="evenodd" clip-rule="evenodd" d="M2.16667 0C0.97005 0 0 0.97005 0 2.16667V10.8333C0 12.03 0.97005 13 2.16667 13H10.8333C12.03 13 13 12.03 13 10.8333V2.16667C13 0.97005 12.03 0 10.8333 0H2.16667ZM1.44444 10.8333V2.88889H11.5556V10.8333C11.5556 11.2322 11.2322 11.5556 10.8333 11.5556H2.16667C1.76779 11.5556 1.44444 11.2322 1.44444 10.8333Z" fill="white"/>
</svg>
