<svg width="10" height="10" viewBox="0 0 10 10" fill="none" xmlns="http://www.w3.org/2000/svg">
<path fill-rule="evenodd" clip-rule="evenodd" d="M6.00996 5.00009L9.79054 1.21944C10.0698 0.940162 10.0698 0.488741 9.79054 0.209461C9.51127 -0.0698202 9.05986 -0.0698202 8.78058 0.209461L5 3.99011L1.21942 0.209461C0.940145 -0.0698202 0.488733 -0.0698202 0.209457 0.209461C-0.0698189 0.488741 -0.0698189 0.940162 0.209457 1.21944L3.99004 5.00009L0.209457 8.78074C-0.0698189 9.06002 -0.0698189 9.51144 0.209457 9.79072C0.348738 9.93 0.531588 10 0.714439 10C0.897289 10 1.08014 9.93 1.21942 9.79072L5 6.01007L8.78058 9.79072C8.91986 9.93 9.10271 10 9.28556 10C9.46841 10 9.65126 9.93 9.79054 9.79072C10.0698 9.51144 10.0698 9.06002 9.79054 8.78074L6.00996 5.00009Z" fill="#828282"/>
</svg>
