<svg width="15" height="15" viewBox="0 0 15 15" fill="none" xmlns="http://www.w3.org/2000/svg">
<path fill-rule="evenodd" clip-rule="evenodd" d="M14.25 13.5C14.6642 13.5 15 13.8358 15 14.25C15 14.6642 14.6642 15 14.25 15H0.75C0.335786 15 0 14.6642 0 14.25C0 13.8358 0.335786 13.5 0.75 13.5H14.25ZM3.21967 8.46967L11.4697 0.21967C11.74 -0.0506931 12.1655 -0.0714902 12.4597 0.157278L12.5303 0.21967L14.7803 2.46967C15.0507 2.74003 15.0715 3.16546 14.8427 3.45967L14.7803 3.53033L6.53033 11.7803C6.41312 11.8975 6.26111 11.9719 6.09858 11.9935L6 12H3.75C3.36537 12 3.04837 11.7105 3.00505 11.3375L3 11.25V9C3 8.83424 3.05487 8.67414 3.15456 8.54398L3.21967 8.46967L11.4697 0.21967L3.21967 8.46967ZM12 1.81067L4.5 9.31067V10.5H5.68934L13.1893 3.00001L12 1.81067Z" fill="#828282"/>
</svg>
