<svg width="13" height="13" viewBox="0 0 13 13" fill="none" xmlns="http://www.w3.org/2000/svg">
<path d="M3.6224 2.87584C3.22352 2.87584 2.90017 3.2015 2.90017 3.60037C2.90017 3.99925 3.22352 4.32491 3.6224 4.32491H9.3643C9.76317 4.32491 10.0865 3.99925 10.0865 3.60037C10.0865 3.2015 9.76317 2.87584 9.3643 2.87584H3.6224Z" fill="white"/>
<path d="M2.90017 6.50002C2.90017 6.10115 3.22352 5.77549 3.6224 5.77549H9.3643C9.76317 5.77549 10.0865 6.10115 10.0865 6.50002C10.0865 6.89889 9.76317 7.22455 9.3643 7.22455H3.6224C3.22352 7.22455 2.90017 6.89889 2.90017 6.50002Z" fill="white"/>
<path d="M3.6291 8.67548C3.23022 8.67548 2.90687 9.00114 2.90687 9.40002C2.90687 9.79889 3.23022 10.1245 3.6291 10.1245H9.371C9.76987 10.1245 10.0932 9.79889 10.0932 9.40002C10.0932 9.00114 9.76987 8.67548 9.371 8.67548H3.6291Z" fill="white"/>
<path fill-rule="evenodd" clip-rule="evenodd" d="M0 2.16667C0 0.97005 0.97005 0 2.16667 0H10.8333C12.03 0 13 0.97005 13 2.16667V10.8333C13 12.03 12.03 13 10.8333 13H2.16667C0.97005 13 0 12.03 0 10.8333V2.16667ZM2.16667 1.44444H10.8333C11.2322 1.44444 11.5556 1.76779 11.5556 2.16667V10.8333C11.5556 11.2322 11.2322 11.5556 10.8333 11.5556H2.16667C1.76779 11.5556 1.44444 11.2322 1.44444 10.8333V2.16667C1.44444 1.76779 1.76779 1.44444 2.16667 1.44444Z" fill="white"/>
</svg>
